<svg width="168" height="177" viewBox="0 0 168 177" fill="none" xmlns="http://www.w3.org/2000/svg">
<g clip-path="url(#clip0_611_1892)">
<g clip-path="url(#clip1_611_1892)">
<g clip-path="url(#clip2_611_1892)">
<path d="M30.9722 148.866V137.575C60.3683 161.12 102.159 161.135 131.578 137.575V148.839C130.847 149.59 130.497 150.494 130.324 151.34C129.978 153.039 129.713 154.696 129.404 156.367C129.072 158.168 128.747 159.964 128.381 161.771C128.278 162.275 128.074 162.831 127.864 163.366C126.825 166.063 124.523 167.78 123.216 166.763C122.761 166.413 122.469 165.816 122.137 165.289C121.82 164.783 121.598 164.167 121.244 163.7C120.515 162.741 119.29 163.241 118.209 164.91C117.775 165.583 117.421 166.298 117.036 166.991C116.659 167.665 116.324 168.352 115.912 169.001C114.955 170.512 113.633 171.111 112.73 170.376C112.246 169.982 111.886 169.4 111.583 168.803C111.147 167.942 110.823 166.983 110.428 166.082C110.276 165.738 110.082 165.419 109.862 165.133C108.695 163.626 106.21 164.196 104.646 166.372C104.071 167.173 103.705 168.105 103.328 168.988C102.991 169.779 102.783 170.588 102.497 171.384C102.392 171.675 102.256 171.967 102.091 172.241C101.346 173.496 99.9707 173.842 99.3037 172.883C98.9291 172.346 98.7232 171.666 98.5071 171.014C98.2045 170.09 98.0212 169.101 97.6816 168.194C97.1731 166.833 96.5473 166.613 94.9417 166.977C92.5064 167.523 90.9645 169.056 90.5569 171.531C90.2235 173.564 90.4046 175.534 90.7463 177.467C91.3104 180.668 91.9959 183.828 92.492 187.033C92.7267 188.532 92.7678 190.111 92.6752 191.671C92.527 194.133 91.0839 195.723 88.7784 196.058C85.9725 196.458 84.2969 195.342 83.7328 192.896C83.317 191.095 83.4035 189.263 83.6876 187.447C84.196 184.195 84.8156 180.948 85.3488 177.686C85.6843 175.644 85.9972 173.583 85.6432 171.549C85.5402 170.952 85.3303 170.353 85.0318 169.826C84.4142 168.739 82.9094 168.206 81.5981 168.48C80.8035 168.649 80.3362 169.18 80.153 169.847C79.8422 170.966 79.6363 172.111 79.4243 173.254C79.2061 174.433 79.062 175.625 78.8273 176.8C78.7409 177.231 78.5371 177.659 78.2921 178.029C77.4522 179.306 75.6304 179.184 74.9902 177.739C74.5332 176.708 74.3356 175.565 74.1606 174.464C73.895 172.786 73.7674 171.102 73.541 169.421C73.4833 168.994 73.3166 168.558 73.1292 168.148C72.5158 166.818 71.1427 166.281 69.9797 166.973C69.4074 167.317 68.8969 167.835 68.5901 168.41C67.9746 169.569 67.5362 170.829 66.9927 172.02C66.6469 172.776 66.3175 173.552 65.8502 174.215C64.6274 175.95 62.4845 175.703 60.9426 173.554C60.1686 172.484 59.619 171.261 59.0632 170.077C58.5218 168.924 58.1121 167.741 57.6263 166.567C57.4266 166.079 57.1878 165.594 56.9511 165.11C55.5451 162.22 53.715 161.135 50.8187 161.201C49.4374 161.225 48.8754 162.246 48.6387 163.562C48.3319 165.268 48.5337 167.195 48.7972 169.141C49.1224 171.537 49.4991 173.945 49.7914 176.325C49.9685 177.764 50.022 179.168 49.6576 180.364C49.2171 181.807 48.1878 182.258 46.5431 181.652C46.1066 181.49 45.6599 181.3 45.2256 181.041C43.2144 179.831 42.1748 178.116 41.9257 175.905C41.7178 174.063 41.9401 172.494 42.2016 170.946C42.6153 168.484 43.1361 166.09 43.4593 163.558C43.6117 162.374 43.5561 160.999 43.3235 159.622C42.848 156.839 40.7215 155.14 38.8873 154.23C38.2265 153.907 37.8271 154.198 37.6789 154.745C37.4216 155.706 37.259 156.754 37.0593 157.765C36.9255 158.432 36.8061 159.113 36.6599 159.768C36.6126 159.974 36.5179 160.138 36.415 160.287C36.1391 160.69 35.7254 160.799 35.0893 160.379C34.4655 159.966 33.9982 159.282 33.7841 158.543C33.4445 157.38 33.1892 156.231 32.9484 155.097C32.6808 153.831 32.5017 152.598 32.2238 151.324C32.0426 150.48 31.703 149.609 30.9722 148.866Z" fill="#007DFE"/>
<path d="M136.183 130.723C136.183 130.723 125.89 119.218 104.393 114.072L81.0404 114.864L80.3487 165.838C81.1969 165.799 85.104 165.589 90.6189 164.776L92.2822 149.798L124.072 152.824C123.834 153.433 123.549 154.01 123.237 154.563C129.812 150.93 135.755 146.136 139.818 139.806L136.183 130.723ZM59.8867 115.585L52.0148 113.769L48.6841 118.31L40.207 121.944L29.3069 127.393L24.1606 132.236L20.8298 136.172C20.8298 136.172 31.452 153.477 54.5921 161.779L55.854 158.672C55.854 158.672 65.7433 142.819 66.6738 132.58C66.6738 132.58 66.4412 152.972 59.9506 163.465C60.107 163.508 60.2655 163.551 60.424 163.594C63.4583 160.434 69.5228 153.094 71.0585 143.561L67.7875 165.149C69.6381 165.443 71.5443 165.68 73.5123 165.844H74.3501L75.2806 115.062L59.8867 115.585Z" fill="#007DFE"/>
<path d="M60.4233 163.602C62.766 164.224 65.2218 164.749 67.7847 165.157L71.0558 143.569C69.5201 153.102 63.4576 160.443 60.4233 163.602Z" fill="#007DFE"/>
<mask id="mask0_611_1892" style="mask-type:luminance" maskUnits="userSpaceOnUse" x="-146" y="9" width="456" height="216">
<path d="M309.765 9.07629H-145.553V224.088H309.765V9.07629Z" fill="black" fill-opacity="0.3"/>
</mask>
<g mask="url(#mask0_611_1892)">
<mask id="mask1_611_1892" style="mask-type:luminance" maskUnits="userSpaceOnUse" x="60" y="143" width="12" height="23">
<path d="M60.4255 143.56H71.058V165.148H60.4255V143.56Z" fill="white"/>
</mask>
<g mask="url(#mask1_611_1892)">
<path d="M60.4255 163.594C62.7682 164.216 65.224 164.74 67.7869 165.148L71.058 143.56C69.5223 153.093 63.4598 160.434 60.4255 163.594Z" fill="#004CAA"/>
</g>
</g>
<path d="M66.6729 132.581C65.7425 142.82 55.8532 158.673 55.8532 158.673L54.5913 161.78C56.3081 162.395 58.0929 162.961 59.9477 163.466C66.4403 152.973 66.6729 132.581 66.6729 132.581Z" fill="#007DFE"/>
<mask id="mask2_611_1892" style="mask-type:luminance" maskUnits="userSpaceOnUse" x="-146" y="9" width="456" height="216">
<path d="M309.765 9.07629H-145.553V224.088H309.765V9.07629Z" fill="black" fill-opacity="0.3"/>
</mask>
<g mask="url(#mask2_611_1892)">
<mask id="mask3_611_1892" style="mask-type:luminance" maskUnits="userSpaceOnUse" x="54" y="132" width="13" height="32">
<path d="M54.595 132.595H66.6766V163.48H54.595V132.595Z" fill="white"/>
</mask>
<g mask="url(#mask3_611_1892)">
<path d="M66.6766 132.595C65.7461 142.834 55.8569 158.687 55.8569 158.687L54.595 161.794C56.3118 162.409 58.0966 162.975 59.9513 163.48C66.444 152.987 66.6766 132.595 66.6766 132.595Z" fill="#004CAA"/>
</g>
</g>
<path d="M92.2824 149.802L90.6191 164.78C99.3865 163.487 112.205 160.663 123.237 154.568C123.552 154.014 123.832 153.435 124.073 152.828L92.2824 149.802Z" fill="#0C93FF"/>
<path d="M73.2076 117.708C73.2076 117.708 69.2716 115.89 67.7586 116.193C66.2435 116.495 62.3076 117.1 62.3076 117.1L56.2534 116.798L52.0148 113.772C52.0148 113.772 50.1971 99.541 51.107 96.8154C51.107 96.8154 47.7762 77.7409 51.4096 64.1174C51.4096 64.1174 52.62 42.0147 78.0514 39.8965C78.0514 39.8965 93.4926 39.8965 100.759 54.4278C100.759 54.4278 108.936 70.4763 106.816 82.8893L105.605 97.4206L106.513 103.78C106.513 103.78 106.513 106.808 106.21 107.715C105.908 108.623 103.182 111.651 103.182 111.651L104.393 114.074L97.4306 116.495L82.8972 117.708H73.2076Z" fill="#006DF5"/>
<mask id="mask4_611_1892" style="mask-type:luminance" maskUnits="userSpaceOnUse" x="-146" y="9" width="456" height="216">
<path d="M309.765 9.07629H-145.553V224.088H309.765V9.07629Z" fill="black" fill-opacity="0.5"/>
</mask>
<g mask="url(#mask4_611_1892)">
<mask id="mask5_611_1892" style="mask-type:luminance" maskUnits="userSpaceOnUse" x="87" y="97" width="16" height="16">
<path d="M87.729 97.8665H102.032V112.289H87.729V97.8665Z" fill="white"/>
</mask>
<g mask="url(#mask5_611_1892)">
<path d="M87.729 112.229C87.729 112.229 96.4346 109.617 102.007 97.8665C102.203 102.078 101.647 113.203 87.729 112.229Z" fill="#004CAA"/>
</g>
</g>
<mask id="mask6_611_1892" style="mask-type:luminance" maskUnits="userSpaceOnUse" x="-146" y="9" width="456" height="216">
<path d="M309.765 9.07629H-145.553V224.088H309.765V9.07629Z" fill="black" fill-opacity="0.5"/>
</mask>
<g mask="url(#mask6_611_1892)">
<mask id="mask7_611_1892" style="mask-type:luminance" maskUnits="userSpaceOnUse" x="58" y="103" width="18" height="13">
<path d="M58.9102 103.07H75.7635V115.069H58.9102V103.07Z" fill="white"/>
</mask>
<g mask="url(#mask7_611_1892)">
<path d="M75.7635 114.3C75.7635 114.3 66.7121 113.474 58.9102 103.07C59.5565 107.237 62.3191 118.028 75.7635 114.3Z" fill="#004CAA"/>
</g>
</g>
<path d="M70.7873 111.347C70.7873 111.347 57.1617 107.411 56.5565 97.1161C56.5565 97.1161 49.2898 61.9952 59.8872 52.6102C59.8872 52.6102 63.8232 44.1331 74.118 42.9206C74.118 42.9206 86.2264 39.8925 95.0082 49.8847C95.0082 49.8847 106.513 69.2618 104.091 80.1619C104.091 80.1619 100.457 100.447 95.3108 105.593L88.9519 108.621L86.2264 111.044C86.2264 111.044 73.5107 114.072 70.7873 111.347Z" fill="#02306A"/>
<path d="M95.2253 52.4813C94.2042 51.2647 87.3246 44.7556 78.2978 44.6897V44.6876C78.2834 44.6876 78.2711 44.6897 78.2566 44.6897C78.2422 44.6897 78.2299 44.6876 78.2155 44.6876V44.6897C69.1887 44.7556 62.3111 51.2647 61.288 52.4813C54.4886 60.5796 54.256 71.8687 54.5668 74.7466C55.2811 81.3442 57.1421 90.1548 61.1871 96.7957C65.5163 103.904 72.1901 108.626 77.6864 108.626C77.8758 108.626 78.0652 108.618 78.2566 108.606C78.4481 108.618 78.6375 108.626 78.8269 108.626C84.3232 108.626 90.997 103.904 95.3262 96.7957C99.3691 90.1548 101.232 81.3442 101.946 74.7466C102.259 71.8687 102.025 60.5796 95.2253 52.4813Z" fill="#0A0A0A"/>
<path d="M53.8557 73.3468C53.8557 73.3468 90.3188 75.605 102.03 73.1306L101.828 75.712C101.828 75.712 71.374 77.7562 54.4671 75.9261C54.4671 75.9261 53.8557 74.7445 53.8557 73.3468Z" fill="#2C2C2C"/>
<path d="M75.856 76.6809L76.0598 108.411L78.2583 108.605L80.4383 108.518L81.0497 76.5739L75.856 76.6809Z" fill="#292929"/>
<path d="M77.6871 108.621L77.5862 76.7859L79.0128 76.6768L78.8275 108.621H77.6871Z" fill="#141414"/>
<circle cx="78.2831" cy="60.7071" r="9.49754" stroke="#B9E1FF" stroke-width="1.18055"/>
<mask id="mask8_611_1892" style="mask-type:luminance" maskUnits="userSpaceOnUse" x="-146" y="9" width="456" height="216">
<path d="M309.765 9.07629H-145.553V224.088H309.765V9.07629Z" fill="black" fill-opacity="0.3"/>
</mask>
<g mask="url(#mask8_611_1892)">
<mask id="mask9_611_1892" style="mask-type:luminance" maskUnits="userSpaceOnUse" x="27" y="126" width="22" height="32">
<path d="M27.5774 126.794H48.6858V157.071H27.5774V126.794Z" fill="white"/>
</mask>
<g mask="url(#mask9_611_1892)">
<path d="M33.2436 129.822C34.6126 129.176 38.9952 126.794 38.9952 126.794L40.5103 131.335C40.5103 131.335 43.5385 153.135 48.6848 157.071C48.6848 157.071 41.1155 156.466 36.877 134.968L36.5744 142.538L33.8489 136.179L30.5181 140.722C30.5181 140.722 22.3436 134.968 33.2436 129.822Z" fill="#004CAA"/>
</g>
</g>
<mask id="mask10_611_1892" style="mask-type:luminance" maskUnits="userSpaceOnUse" x="-146" y="9" width="456" height="216">
<path d="M309.765 9.07629H-145.553V224.088H309.765V9.07629Z" fill="black" fill-opacity="0.3"/>
</mask>
<g mask="url(#mask10_611_1892)">
<mask id="mask11_611_1892" style="mask-type:luminance" maskUnits="userSpaceOnUse" x="115" y="124" width="22" height="31">
<path d="M115.377 124.678H136.487V154.956H115.377V124.678Z" fill="white"/>
</mask>
<g mask="url(#mask11_611_1892)">
<path d="M130.818 127.708C129.449 127.062 125.067 124.682 125.067 124.682L123.552 129.221C123.552 129.221 120.526 151.021 115.377 154.957C115.377 154.957 122.946 154.352 127.185 132.857L127.49 140.426L130.213 134.067L133.544 138.608C133.544 138.608 141.718 132.857 130.818 127.708Z" fill="#004CAA"/>
</g>
</g>
<mask id="mask12_611_1892" style="mask-type:luminance" maskUnits="userSpaceOnUse" x="-146" y="9" width="456" height="216">
<path d="M309.765 9.07629H-145.553V224.088H309.765V9.07629Z" fill="black" fill-opacity="0.3"/>
</mask>
<g mask="url(#mask12_611_1892)">
<mask id="mask13_611_1892" style="mask-type:luminance" maskUnits="userSpaceOnUse" x="90" y="160" width="11" height="4">
<path d="M90.7708 160.408H100.458V163.132H90.7708V160.408Z" fill="white"/>
</mask>
<g mask="url(#mask13_611_1892)">
<path d="M91.0734 160.408L100.458 163.132L90.7708 162.829L91.0734 160.408Z" fill="#004CAA"/>
</g>
</g>
<path d="M81.0797 111.956L75.3281 112.561L75.2808 115.066L81.0406 114.871L81.0797 111.956Z" fill="#0A0A0A"/>
<path d="M75.2818 115.063L74.3513 165.846H80.1729C80.1729 165.846 80.2367 165.844 80.3499 165.838L81.0416 114.866L75.2818 115.063Z" fill="#0A0A0A"/>
<mask id="mask14_611_1892" style="mask-type:luminance" maskUnits="userSpaceOnUse" x="51" y="108" width="13" height="11">
<path d="M51.7131 108.935H63.8236V118.005H51.7131V108.935Z" fill="white"/>
</mask>
<g mask="url(#mask14_611_1892)">
<path d="M51.7131 108.935L63.8236 117.412C63.8236 117.412 54.134 121.348 51.7131 108.935Z" fill="#005CCF"/>
</g>
</g>
</g>
<rect x="-0.226562" y="114.743" width="159.162" height="65.1686" fill="url(#paint0_linear_611_1892)"/>
</g>
<rect x="160.597" y="7.40304" width="162.194" height="162.194" rx="81.097" transform="rotate(90 160.597 7.40304)" stroke="url(#paint1_radial_611_1892)" stroke-width="14.8061"/>
<defs>
<linearGradient id="paint0_linear_611_1892" x1="79.3543" y1="114.743" x2="79.3543" y2="179.912" gradientUnits="userSpaceOnUse">
<stop stop-opacity="0"/>
<stop offset="1"/>
</linearGradient>
<radialGradient id="paint1_radial_611_1892" cx="0" cy="0" r="1" gradientUnits="userSpaceOnUse" gradientTransform="translate(281.738 -17.8346) rotate(122.668) scale(172.686 202.52)">
<stop stop-color="#C6D5FF"/>
<stop offset="0.508505" stop-color="#476BD0"/>
<stop offset="0.99"/>
</radialGradient>
<clipPath id="clip0_611_1892">
<rect x="168" width="177" height="177" rx="88.5" transform="rotate(90 168 0)" fill="white"/>
</clipPath>
<clipPath id="clip1_611_1892">
<rect width="122.139" height="155.833" fill="white" transform="translate(21.0837 40.1034)"/>
</clipPath>
<clipPath id="clip2_611_1892">
<rect width="379.432" height="379.432" fill="white" transform="translate(-107.612 -73.1362)"/>
</clipPath>
</defs>
</svg>
