<svg width="108" height="120" viewBox="0 0 108 120" fill="none" xmlns="http://www.w3.org/2000/svg">
<g clip-path="url(#clip0_1331_2200)">
<g clip-path="url(#clip1_1331_2200)">
<g clip-path="url(#clip2_1331_2200)">
<path d="M15.082 109.87V102.22C34.9989 118.173 63.3136 118.183 83.2459 102.22V109.852C82.7507 110.361 82.5136 110.974 82.3965 111.547C82.1622 112.698 81.9822 113.82 81.773 114.953C81.5485 116.173 81.3281 117.389 81.0798 118.614C81.0101 118.956 80.872 119.332 80.7298 119.695C80.0254 121.522 78.4661 122.685 77.5804 121.996C77.2722 121.759 77.0741 121.355 76.8496 120.998C76.6348 120.655 76.4842 120.238 76.2443 119.921C75.7505 119.271 74.9207 119.61 74.1884 120.741C73.8941 121.197 73.6542 121.681 73.3934 122.151C73.1382 122.607 72.9108 123.073 72.6319 123.512C71.9833 124.536 71.0879 124.942 70.4756 124.444C70.1478 124.178 69.9038 123.783 69.6987 123.378C69.4031 122.795 69.1841 122.146 68.9163 121.535C68.8131 121.302 68.682 121.086 68.5327 120.892C67.7419 119.871 66.0585 120.257 64.9985 121.731C64.6093 122.274 64.3611 122.906 64.1058 123.504C63.8771 124.04 63.7362 124.588 63.5423 125.127C63.4712 125.324 63.3792 125.522 63.2676 125.708C62.7627 126.558 61.831 126.793 61.3791 126.143C61.1253 125.779 60.9858 125.319 60.8393 124.876C60.6343 124.25 60.5102 123.581 60.28 122.966C59.9355 122.044 59.5115 121.894 58.4236 122.141C56.7737 122.511 55.729 123.55 55.4528 125.226C55.2269 126.604 55.3496 127.939 55.5812 129.249C55.9633 131.418 56.4278 133.559 56.7639 135.73C56.9229 136.746 56.9508 137.815 56.888 138.873C56.7876 140.541 55.8099 141.618 54.2478 141.845C52.3468 142.115 51.2114 141.359 50.8293 139.703C50.5475 138.482 50.6061 137.241 50.7986 136.011C51.1431 133.807 51.5629 131.607 51.9241 129.397C52.1515 128.013 52.3635 126.617 52.1236 125.239C52.0539 124.835 51.9116 124.429 51.7094 124.072C51.2909 123.335 50.2714 122.974 49.3829 123.159C48.8446 123.274 48.5279 123.634 48.4038 124.086C48.1932 124.844 48.0537 125.62 47.9101 126.394C47.7622 127.193 47.6646 128.001 47.5056 128.797C47.447 129.089 47.3089 129.379 47.143 129.63C46.5739 130.494 45.3396 130.412 44.9058 129.433C44.5962 128.734 44.4623 127.96 44.3437 127.214C44.1638 126.077 44.0773 124.936 43.9239 123.797C43.8849 123.508 43.7719 123.212 43.645 122.935C43.2293 122.034 42.299 121.67 41.511 122.139C41.1233 122.371 40.7774 122.723 40.5695 123.112C40.1525 123.897 39.8554 124.751 39.4872 125.558C39.2529 126.07 39.0298 126.596 38.7131 127.045C37.8847 128.221 36.4327 128.054 35.3881 126.598C34.8637 125.872 34.4913 125.044 34.1147 124.242C33.7479 123.461 33.4703 122.659 33.1412 121.864C33.0059 121.533 32.8441 121.204 32.6837 120.876C31.7311 118.918 30.4911 118.183 28.5287 118.228C27.5929 118.244 27.2121 118.936 27.0517 119.827C26.8439 120.984 26.9806 122.289 27.1591 123.607C27.3795 125.231 27.6347 126.863 27.8328 128.475C27.9527 129.45 27.989 130.401 27.7421 131.211C27.4436 132.189 26.7463 132.494 25.6319 132.084C25.3362 131.974 25.0335 131.846 24.7392 131.67C23.3766 130.85 22.6722 129.688 22.5035 128.19C22.3626 126.942 22.5132 125.879 22.6903 124.83C22.9707 123.162 23.3236 121.54 23.5425 119.825C23.6457 119.023 23.6081 118.091 23.4505 117.158C23.1283 115.272 21.6875 114.122 20.4448 113.505C19.9971 113.286 19.7265 113.483 19.6261 113.854C19.4518 114.505 19.3416 115.215 19.2063 115.9C19.1156 116.352 19.0347 116.813 18.9357 117.257C18.9036 117.396 18.8395 117.508 18.7697 117.608C18.5828 117.882 18.3025 117.956 17.8715 117.671C17.4489 117.391 17.1323 116.928 16.9872 116.427C16.7571 115.639 16.5842 114.861 16.421 114.092C16.2397 113.234 16.1183 112.399 15.93 111.536C15.8073 110.964 15.5772 110.374 15.082 109.87Z" fill="#007DFE"/>
<path d="M86.3662 97.5787C86.3662 97.5787 79.3925 89.7835 64.8272 86.2966L49.0053 86.8336L48.5366 121.37C49.1113 121.344 51.7585 121.201 55.495 120.651L56.6219 110.502L78.1609 112.553C77.9992 112.965 77.8067 113.356 77.5947 113.731C82.0495 111.269 86.0761 108.021 88.8293 103.732L86.3662 97.5787ZM34.6729 87.3217L29.3394 86.0916L27.0827 89.1684L21.3392 91.6301L13.954 95.322L10.4671 98.6038L8.21045 101.271C8.21045 101.271 15.4073 112.995 31.0856 118.62L31.9406 116.515C31.9406 116.515 38.6409 105.774 39.2714 98.8367C39.2714 98.8367 39.1138 112.653 34.7161 119.762C34.8221 119.791 34.9295 119.821 35.0369 119.85C37.0928 117.709 41.2017 112.735 42.2422 106.276L40.0259 120.903C41.2798 121.102 42.5713 121.263 43.9047 121.374H44.4724L45.1028 86.9675L34.6729 87.3217Z" fill="#007DFE"/>
<path d="M35.0366 119.856C36.6238 120.277 38.2878 120.632 40.0242 120.909L42.2405 106.282C41.2 112.741 37.0925 117.715 35.0366 119.856Z" fill="#007DFE"/>
<mask id="mask0_1331_2200" style="mask-type:luminance" maskUnits="userSpaceOnUse" x="-105" y="15" width="309" height="146">
<path d="M203.974 15.1583H-104.521V160.836H203.974V15.1583Z" fill="black" fill-opacity="0.3"/>
</mask>
<g mask="url(#mask0_1331_2200)">
<mask id="mask1_1331_2200" style="mask-type:luminance" maskUnits="userSpaceOnUse" x="35" y="106" width="8" height="15">
<path d="M35.0391 106.277H42.2429V120.904H35.0391V106.277Z" fill="white"/>
</mask>
<g mask="url(#mask1_1331_2200)">
<path d="M35.0391 119.851C36.6263 120.272 38.2902 120.628 40.0267 120.904L42.2429 106.277C41.2024 112.736 37.0949 117.71 35.0391 119.851Z" fill="#004CAA"/>
</g>
</g>
<path d="M39.2707 98.8378C38.6403 105.775 31.9399 116.516 31.9399 116.516L31.085 118.621C32.2482 119.038 33.4574 119.421 34.7141 119.763C39.1131 112.654 39.2707 98.8378 39.2707 98.8378Z" fill="#007DFE"/>
<mask id="mask2_1331_2200" style="mask-type:luminance" maskUnits="userSpaceOnUse" x="-105" y="15" width="309" height="146">
<path d="M203.974 15.1583H-104.521V160.836H203.974V15.1583Z" fill="black" fill-opacity="0.3"/>
</mask>
<g mask="url(#mask2_1331_2200)">
<mask id="mask3_1331_2200" style="mask-type:luminance" maskUnits="userSpaceOnUse" x="31" y="98" width="9" height="22">
<path d="M31.0884 98.8486H39.2741V119.774H31.0884V98.8486Z" fill="white"/>
</mask>
<g mask="url(#mask3_1331_2200)">
<path d="M39.2741 98.8486C38.6437 105.786 31.9434 116.527 31.9434 116.527L31.0884 118.632C32.2516 119.049 33.4608 119.432 34.7175 119.774C39.1165 112.665 39.2741 98.8486 39.2741 98.8486Z" fill="#004CAA"/>
</g>
</g>
<path d="M56.6221 110.505L55.4951 120.653C61.4353 119.777 70.1204 117.864 77.5948 113.734C77.8082 113.359 77.9979 112.967 78.1611 112.555L56.6221 110.505Z" fill="#0C93FF"/>
<path d="M43.6976 88.7601C43.6976 88.7601 41.0309 87.5286 40.0058 87.7336C38.9792 87.9386 36.3125 88.3487 36.3125 88.3487L32.2105 88.1436L29.3388 86.0934C29.3388 86.0934 28.1072 76.4515 28.7237 74.6049C28.7237 74.6049 26.467 61.6812 28.9287 52.4508C28.9287 52.4508 29.7488 37.4754 46.9795 36.0403C46.9795 36.0403 57.4414 36.0403 62.3649 45.8857C62.3649 45.8857 67.9048 56.7591 66.4682 65.1694L65.6481 75.0149L66.2632 79.3233C66.2632 79.3233 66.2632 81.375 66.0581 81.99C65.8531 82.6051 64.0065 84.6568 64.0065 84.6568L64.8266 86.2984L60.1096 87.9386L50.2627 88.7601H43.6976Z" fill="#006DF5"/>
<mask id="mask4_1331_2200" style="mask-type:luminance" maskUnits="userSpaceOnUse" x="-105" y="15" width="309" height="146">
<path d="M203.974 15.1583H-104.521V160.836H203.974V15.1583Z" fill="black" fill-opacity="0.5"/>
</mask>
<g mask="url(#mask4_1331_2200)">
<mask id="mask5_1331_2200" style="mask-type:luminance" maskUnits="userSpaceOnUse" x="53" y="75" width="11" height="11">
<path d="M53.5356 75.3183H63.2263V85.0899H53.5356V75.3183Z" fill="white"/>
</mask>
<g mask="url(#mask5_1331_2200)">
<path d="M53.5356 85.0494C53.5356 85.0494 59.434 83.2795 63.2096 75.3183C63.3421 78.1719 62.9655 85.7091 53.5356 85.0494Z" fill="#004CAA"/>
</g>
</g>
<mask id="mask6_1331_2200" style="mask-type:luminance" maskUnits="userSpaceOnUse" x="-105" y="15" width="309" height="146">
<path d="M203.974 15.1583H-104.521V160.836H203.974V15.1583Z" fill="black" fill-opacity="0.5"/>
</mask>
<g mask="url(#mask6_1331_2200)">
<mask id="mask7_1331_2200" style="mask-type:luminance" maskUnits="userSpaceOnUse" x="34" y="78" width="12" height="9">
<path d="M34.0112 78.8399H45.43V86.9698H34.0112V78.8399Z" fill="white"/>
</mask>
<g mask="url(#mask7_1331_2200)">
<path d="M45.43 86.4482C45.43 86.4482 39.2973 85.8889 34.0112 78.8399C34.4492 81.6628 36.3209 88.9741 45.43 86.4482Z" fill="#004CAA"/>
</g>
</g>
<path d="M42.0585 84.4508C42.0585 84.4508 32.8267 81.7841 32.4166 74.809C32.4166 74.809 27.4932 51.0133 34.6733 44.6547C34.6733 44.6547 37.3401 38.9111 44.3152 38.0896C44.3152 38.0896 52.519 36.0379 58.469 42.808C58.469 42.808 66.2642 55.9367 64.6226 63.3219C64.6226 63.3219 62.1609 77.0657 58.674 80.5525L54.3657 82.6042L52.519 84.2458C52.519 84.2458 43.9037 86.2975 42.0585 84.4508Z" fill="#02306A"/>
<path d="M58.616 44.5671C57.9242 43.7429 53.2629 39.3327 47.147 39.288V39.2867C47.1372 39.2867 47.1289 39.288 47.1191 39.288C47.1093 39.288 47.101 39.2867 47.0912 39.2867V39.288C40.9753 39.3327 36.3154 43.7429 35.6222 44.5671C31.0154 50.0541 30.8578 57.7028 31.0684 59.6527C31.5524 64.1228 32.8132 70.0923 35.5539 74.5918C38.487 79.4078 43.0088 82.6073 46.7328 82.6073C46.8611 82.6073 46.9894 82.6018 47.1191 82.5934C47.2488 82.6018 47.3771 82.6073 47.5054 82.6073C51.2294 82.6073 55.7512 79.4078 58.6843 74.5918C61.4236 70.0923 62.6858 64.1228 63.1698 59.6527C63.3818 57.7028 63.2228 50.0541 58.616 44.5671Z" fill="#0A0A0A"/>
<path d="M30.5864 58.7037C30.5864 58.7037 55.2915 60.2338 63.2262 58.5573L63.0895 60.3063C63.0895 60.3063 42.4557 61.6913 31.0007 60.4513C31.0007 60.4513 30.5864 59.6508 30.5864 58.7037Z" fill="#2C2C2C"/>
<path d="M45.4922 60.9628L45.6303 82.4614L47.1199 82.5925L48.5969 82.5339L49.0111 60.8903L45.4922 60.9628Z" fill="#292929"/>
<path d="M46.7329 82.6035L46.6646 61.0339L47.6311 60.9599L47.5056 82.6035H46.7329Z" fill="#141414"/>
<rect x="41.905" y="45.1427" width="10.3059" height="10.3059" stroke="#C6D5FF" stroke-width="0.98574"/>
<mask id="mask8_1331_2200" style="mask-type:luminance" maskUnits="userSpaceOnUse" x="-105" y="15" width="309" height="146">
<path d="M203.974 15.1583H-104.521V160.836H203.974V15.1583Z" fill="black" fill-opacity="0.3"/>
</mask>
<g mask="url(#mask8_1331_2200)">
<mask id="mask9_1331_2200" style="mask-type:luminance" maskUnits="userSpaceOnUse" x="12" y="94" width="16" height="22">
<path d="M12.7827 94.9183H27.0844V115.432H12.7827V94.9183Z" fill="white"/>
</mask>
<g mask="url(#mask9_1331_2200)">
<path d="M16.6221 96.9699C17.5496 96.532 20.5191 94.9183 20.5191 94.9183L21.5456 97.9951C21.5456 97.9951 23.5972 112.765 27.0841 115.432C27.0841 115.432 21.9556 115.022 19.0839 100.457L18.8788 105.585L17.0322 101.277L14.7755 104.355C14.7755 104.355 9.23698 100.457 16.6221 96.9699Z" fill="#004CAA"/>
</g>
</g>
<mask id="mask10_1331_2200" style="mask-type:luminance" maskUnits="userSpaceOnUse" x="-105" y="15" width="309" height="146">
<path d="M203.974 15.1583H-104.521V160.836H203.974V15.1583Z" fill="black" fill-opacity="0.3"/>
</mask>
<g mask="url(#mask10_1331_2200)">
<mask id="mask11_1331_2200" style="mask-type:luminance" maskUnits="userSpaceOnUse" x="72" y="93" width="15" height="21">
<path d="M72.27 93.4856H86.5731V113.999H72.27V93.4856Z" fill="white"/>
</mask>
<g mask="url(#mask11_1331_2200)">
<path d="M82.732 95.5362C81.8045 95.0983 78.8351 93.4859 78.8351 93.4859L77.8085 96.5613C77.8085 96.5613 75.7583 111.332 72.27 113.998C72.27 113.998 77.3985 113.588 80.2703 99.0245L80.4767 104.153L82.3219 99.8446L84.5786 102.921C84.5786 102.921 90.1171 99.0245 82.732 95.5362Z" fill="#004CAA"/>
</g>
</g>
<mask id="mask12_1331_2200" style="mask-type:luminance" maskUnits="userSpaceOnUse" x="-105" y="15" width="309" height="146">
<path d="M203.974 15.1583H-104.521V160.836H203.974V15.1583Z" fill="black" fill-opacity="0.3"/>
</mask>
<g mask="url(#mask12_1331_2200)">
<mask id="mask13_1331_2200" style="mask-type:luminance" maskUnits="userSpaceOnUse" x="55" y="117" width="8" height="3">
<path d="M55.5977 117.69H62.1613V119.535H55.5977V117.69Z" fill="white"/>
</mask>
<g mask="url(#mask13_1331_2200)">
<path d="M55.8027 117.69L62.1613 119.535L55.5977 119.33L55.8027 117.69Z" fill="#004CAA"/>
</g>
</g>
<path d="M49.0315 84.8629L45.1346 85.2729L45.1025 86.9703L49.005 86.8378L49.0315 84.8629Z" fill="#0A0A0A"/>
<path d="M45.1036 86.969L44.4731 121.376H48.4175C48.4175 121.376 48.4607 121.375 48.5374 121.37L49.0061 86.8351L45.1036 86.969Z" fill="#0A0A0A"/>
<mask id="mask14_1331_2200" style="mask-type:luminance" maskUnits="userSpaceOnUse" x="29" y="82" width="9" height="7">
<path d="M29.1333 82.819H37.3386V88.9642H29.1333V82.819Z" fill="white"/>
</mask>
<g mask="url(#mask14_1331_2200)">
<path d="M29.1333 82.819L37.3386 88.5625C37.3386 88.5625 30.7735 91.2293 29.1333 82.819Z" fill="#005CCF"/>
</g>
</g>
</g>
<rect x="-6.05566" y="77.7422" width="107.838" height="44.1541" fill="url(#paint0_linear_1331_2200)"/>
</g>
<path d="M102.644 5.27934L102.644 114.645L-6.72068 114.644L-6.72067 5.27933L102.644 5.27934Z" stroke="url(#paint1_radial_1331_2200)" stroke-width="10.5587"/>
<defs>
<linearGradient id="paint0_linear_1331_2200" x1="47.8632" y1="77.7422" x2="47.8632" y2="121.896" gradientUnits="userSpaceOnUse">
<stop stop-opacity="0"/>
<stop offset="1"/>
</linearGradient>
<radialGradient id="paint1_radial_1331_2200" cx="0" cy="0" r="1" gradientUnits="userSpaceOnUse" gradientTransform="translate(107.883 59.9413) rotate(-180) scale(121.773 142.811)">
<stop stop-color="#C6D5FF"/>
<stop offset="0.508505" stop-color="#476BD0"/>
<stop offset="0.99"/>
</radialGradient>
<clipPath id="clip0_1331_2200">
<path d="M107.924 0L107.924 119.924L-12 119.924L-12 -5.24204e-06L107.924 0Z" fill="white"/>
</clipPath>
<clipPath id="clip1_1331_2200">
<rect width="82.7538" height="105.582" fill="white" transform="translate(8.38281 36.1816)"/>
</clipPath>
<clipPath id="clip2_1331_2200">
<rect width="257.079" height="257.079" fill="white" transform="translate(-78.813 -40.5432)"/>
</clipPath>
</defs>
</svg>
