<svg width="214" height="137" viewBox="0 0 214 137" fill="none" xmlns="http://www.w3.org/2000/svg">
<rect x="2" y="2" width="210" height="133" rx="18" fill="#222222"/>
<rect x="2" y="2" width="210" height="133" rx="18" stroke="url(#paint0_radial_1217_1491)" stroke-width="4"/>
<g clip-path="url(#clip0_1217_1491)">
<path d="M21.6371 63.8354C21.5701 63.9792 20.649 67.822 21.1431 70.5644C21.6371 73.3068 23.5212 75.5837 26.0752 76.5655C28.6292 77.5474 31.3255 76.8787 31.3255 76.8787C31.3255 76.8787 26.2176 74.1786 26.6614 69.0662C27.1805 63.1159 33.7037 63.5306 33.7037 63.5306C33.7037 63.5306 30.6054 60.4751 27.4234 60.9914C24.2414 61.5077 22.0391 62.9551 21.6371 63.8354Z" fill="url(#paint1_linear_1217_1491)"/>
<path d="M64.4181 63.8354C64.4851 63.9792 65.4062 67.822 64.9121 70.5644C64.4181 73.3068 62.534 75.5837 59.98 76.5655C57.426 77.5474 54.7297 76.8787 54.7297 76.8787C54.7297 76.8787 59.8377 74.1786 59.3939 69.0662C58.8747 63.1159 52.3516 63.5306 52.3516 63.5306C52.3516 63.5306 55.4498 60.4751 58.6319 60.9914C61.8139 61.5077 64.0162 62.9551 64.4181 63.8354Z" fill="url(#paint2_linear_1217_1491)"/>
<path d="M39.9001 61.3465C39.8164 61.2703 39.7159 61.1772 39.5986 61.0756C38.8785 60.4578 37.5303 59.4251 35.9142 58.4771C32.2716 56.3357 28.1769 55.8956 24.6934 58.638C20.674 61.812 21.1011 66.2642 21.0425 67.6185C21.076 66.7467 22.5498 65.1638 23.0857 64.529C23.7221 63.7757 24.4422 63.0901 25.2712 62.5992C26.6696 61.7612 28.2439 61.5835 29.793 61.9728C32.0958 62.5569 34.2227 63.9196 35.7802 65.257" fill="url(#paint3_linear_1217_1491)"/>
<path d="M61.5541 73.8039C60.0134 75.0227 58.1293 75.4459 56.2703 74.9635C52.7534 74.0493 49.9649 70.6467 47.9636 67.5996C47.7794 67.7774 46.7494 68.8185 46.5736 68.9962C45.3929 70.1558 45.0914 70.5028 43.9023 71.6878C45.5938 74.2271 47.5282 76.8933 50.1491 78.4422C52.2593 79.6865 54.6877 80.5752 57.1161 80.1859C60.5493 79.6357 63.7229 76.9525 64.6692 73.296C65.0041 72.001 65.046 70.6636 65.046 69.3263C64.2254 71.2815 62.3496 73.1691 61.5458 73.8039H61.5541Z" fill="url(#paint4_linear_1217_1491)"/>
<path d="M65.0548 67.6172C65.0213 66.7454 63.5475 65.1625 63.0116 64.5277C62.3752 63.7744 61.655 63.0888 60.826 62.5979C59.4276 61.7599 57.8534 61.5822 56.3042 61.9715C52.536 62.928 49.3373 66.2798 46.5656 69.0053C43.1993 72.3148 39.9671 76.0729 35.9393 78.4513C33.8292 79.6956 31.4008 80.5843 28.9724 80.195C25.5392 79.6448 22.3655 76.9616 21.4193 73.3051C21.0843 71.9932 21.0425 70.6558 21.0425 69.3185C21.8631 71.2737 23.7388 73.1612 24.5427 73.796C26.0835 75.0149 27.9675 75.4381 29.8265 74.9556C33.6868 73.9569 36.9274 70.4781 39.7661 67.6933C41.5832 65.9413 43.2998 64.223 45.0332 62.5217C46.6074 60.9728 48.3073 59.5762 50.183 58.4674C53.8172 56.3259 57.9203 55.8858 61.4038 58.6282C65.4232 61.8023 64.9961 66.2544 65.0548 67.6002V67.6172Z" fill="url(#paint5_linear_1217_1491)"/>
</g>
<path d="M74.3024 79.501V62.8548H77.3176V79.501H74.3024ZM75.81 59.6512C75.2237 59.6512 74.7317 59.4628 74.3339 59.0859C73.957 58.709 73.7685 58.2483 73.7685 57.7039C73.7685 57.1386 73.957 56.6675 74.3339 56.2906C74.7317 55.9137 75.2237 55.7253 75.81 55.7253C76.3963 55.7253 76.8779 55.9137 77.2548 56.2906C77.6526 56.6465 77.8515 57.0967 77.8515 57.6411C77.8515 58.2065 77.6631 58.6881 77.2862 59.0859C76.9093 59.4628 76.4172 59.6512 75.81 59.6512ZM91.963 62.6978C93.324 62.6978 94.5175 62.9595 95.5435 63.483C96.5904 64.0064 97.407 64.8021 97.9933 65.87C98.5796 66.9378 98.8727 68.2884 98.8727 69.9216V79.501H95.8575V70.2671C95.8575 68.6548 95.4597 67.4404 94.664 66.6238C93.8893 65.8072 92.79 65.3989 91.3662 65.3989C90.2984 65.3989 89.3666 65.6082 88.5709 66.027C87.7753 66.4458 87.1576 67.0635 86.7179 67.8801C86.2991 68.6967 86.0897 69.7122 86.0897 70.9266V79.501H83.0746V62.8548H85.9641V67.3461L85.493 66.1527C86.0374 65.0638 86.8749 64.2158 88.0056 63.6086C89.1363 63.0014 90.4554 62.6978 91.963 62.6978ZM104.892 79.501V61.3787C104.892 59.7455 105.364 58.4473 106.306 57.4841C107.269 56.5 108.63 56.0079 110.389 56.0079C111.038 56.0079 111.656 56.0917 112.242 56.2592C112.849 56.4058 113.362 56.6465 113.781 56.9816L112.87 59.2743C112.556 59.0231 112.2 58.8346 111.802 58.709C111.404 58.5624 110.986 58.4891 110.546 58.4891C109.666 58.4891 108.996 58.7404 108.536 59.2429C108.075 59.7245 107.845 60.4469 107.845 61.4101V63.64L107.908 65.022V79.501H104.892ZM102.066 65.336V62.8548H112.682V65.336H102.066ZM115.54 79.501V62.8548H118.555V79.501H115.54ZM117.047 59.6512C116.461 59.6512 115.969 59.4628 115.571 59.0859C115.194 58.709 115.006 58.2483 115.006 57.7039C115.006 57.1386 115.194 56.6675 115.571 56.2906C115.969 55.9137 116.461 55.7253 117.047 55.7253C117.634 55.7253 118.115 55.9137 118.492 56.2906C118.89 56.6465 119.089 57.0967 119.089 57.6411C119.089 58.2065 118.9 58.6881 118.523 59.0859C118.147 59.4628 117.654 59.6512 117.047 59.6512ZM128.663 79.501L121.376 62.8548H124.517L130.987 77.9306H129.48L136.075 62.8548H139.028L131.741 79.501H128.663ZM148.794 79.6894C147.014 79.6894 145.444 79.323 144.083 78.5901C142.742 77.8573 141.696 76.8522 140.942 75.575C140.209 74.2977 139.842 72.832 139.842 71.1779C139.842 69.5238 140.198 68.0581 140.91 66.7808C141.643 65.5036 142.638 64.509 143.894 63.7971C145.171 63.0642 146.606 62.6978 148.197 62.6978C149.809 62.6978 151.233 63.0537 152.468 63.7657C153.704 64.4776 154.667 65.4826 155.358 66.7808C156.07 68.0581 156.426 69.5552 156.426 71.2721C156.426 71.3978 156.415 71.5443 156.394 71.7118C156.394 71.8793 156.384 72.0364 156.363 72.183H142.198V70.0158H154.793L153.568 70.7696C153.589 69.7017 153.369 68.749 152.908 67.9115C152.447 67.0739 151.809 66.4249 150.992 65.9642C150.197 65.4826 149.265 65.2418 148.197 65.2418C147.15 65.2418 146.218 65.4826 145.402 65.9642C144.585 66.4249 143.946 67.0844 143.486 67.9429C143.025 68.7804 142.795 69.7436 142.795 70.8324V71.3349C142.795 72.4447 143.046 73.4393 143.549 74.3187C144.072 75.1772 144.794 75.8472 145.716 76.3288C146.637 76.8104 147.694 77.0512 148.888 77.0512C149.872 77.0512 150.762 76.8837 151.558 76.5486C152.374 76.2136 153.086 75.7111 153.693 75.0411L155.358 76.9884C154.604 77.8678 153.662 78.5378 152.531 78.9985C151.422 79.4591 150.176 79.6894 148.794 79.6894ZM169.501 62.6978C170.862 62.6978 172.056 62.9595 173.082 63.483C174.128 64.0064 174.945 64.8021 175.531 65.87C176.118 66.9378 176.411 68.2884 176.411 69.9216V79.501H173.396V70.2671C173.396 68.6548 172.998 67.4404 172.202 66.6238C171.427 65.8072 170.328 65.3989 168.904 65.3989C167.836 65.3989 166.905 65.6082 166.109 66.027C165.313 66.4458 164.696 67.0635 164.256 67.8801C163.837 68.6967 163.628 69.7122 163.628 70.9266V79.501H160.613V62.8548H163.502V67.3461L163.031 66.1527C163.575 65.0638 164.413 64.2158 165.544 63.6086C166.674 63.0014 167.993 62.6978 169.501 62.6978ZM187.707 79.6894C186.032 79.6894 184.734 79.2392 183.812 78.3389C182.891 77.4385 182.431 76.1508 182.431 74.4757V59.2115H185.446V74.3501C185.446 75.2505 185.666 75.9414 186.105 76.423C186.566 76.9046 187.215 77.1454 188.053 77.1454C188.995 77.1454 189.78 76.8837 190.408 76.3602L191.35 78.5273C190.89 78.9252 190.335 79.2183 189.686 79.4068C189.058 79.5952 188.398 79.6894 187.707 79.6894ZM179.604 65.336V62.8548H190.22V65.336H179.604Z" fill="white"/>
<defs>
<radialGradient id="paint0_radial_1217_1491" cx="0" cy="0" r="1" gradientUnits="userSpaceOnUse" gradientTransform="translate(121.906 -6.86923) rotate(65.8688) scale(186.668 393.974)">
<stop stop-color="#C6D5FF"/>
<stop offset="0.176167" stop-color="#476BD0"/>
<stop offset="1" stop-opacity="0"/>
</radialGradient>
<linearGradient id="paint1_linear_1217_1491" x1="21.0007" y1="69.0154" x2="33.7037" y2="69.0154" gradientUnits="userSpaceOnUse">
<stop stop-color="#00E5FF"/>
<stop offset="0.12" stop-color="#29B8FE"/>
<stop offset="0.29" stop-color="#5E81FD"/>
<stop offset="0.46" stop-color="#8952FD"/>
<stop offset="0.62" stop-color="#AB2EFC"/>
<stop offset="0.76" stop-color="#C415FC"/>
<stop offset="0.9" stop-color="#D205FC"/>
<stop offset="1" stop-color="#D800FC"/>
</linearGradient>
<linearGradient id="paint2_linear_1217_1491" x1="52.3516" y1="56.7254" x2="65.0545" y2="56.7254" gradientUnits="userSpaceOnUse">
<stop stop-color="#00E5FF"/>
<stop offset="0.12" stop-color="#29B8FE"/>
<stop offset="0.29" stop-color="#5E81FD"/>
<stop offset="0.46" stop-color="#8952FD"/>
<stop offset="0.62" stop-color="#AB2EFC"/>
<stop offset="0.76" stop-color="#C415FC"/>
<stop offset="0.9" stop-color="#D205FC"/>
<stop offset="1" stop-color="#D800FC"/>
</linearGradient>
<linearGradient id="paint3_linear_1217_1491" x1="21.0425" y1="62.1675" x2="39.9001" y2="62.1675" gradientUnits="userSpaceOnUse">
<stop stop-color="#00E5FF"/>
<stop offset="0.12" stop-color="#29B8FE"/>
<stop offset="0.29" stop-color="#5E81FD"/>
<stop offset="0.46" stop-color="#8952FD"/>
<stop offset="0.62" stop-color="#AB2EFC"/>
<stop offset="0.76" stop-color="#C415FC"/>
<stop offset="0.9" stop-color="#D205FC"/>
<stop offset="1" stop-color="#D800FC"/>
</linearGradient>
<linearGradient id="paint4_linear_1217_1491" x1="43.9023" y1="73.9393" x2="65.0544" y2="73.9393" gradientUnits="userSpaceOnUse">
<stop stop-color="#00E5FF"/>
<stop offset="0.12" stop-color="#29B8FE"/>
<stop offset="0.29" stop-color="#5E81FD"/>
<stop offset="0.46" stop-color="#8952FD"/>
<stop offset="0.62" stop-color="#AB2EFC"/>
<stop offset="0.76" stop-color="#C415FC"/>
<stop offset="0.9" stop-color="#D205FC"/>
<stop offset="1" stop-color="#D800FC"/>
</linearGradient>
<linearGradient id="paint5_linear_1217_1491" x1="20.9412" y1="69.5013" x2="65.0124" y2="67.5672" gradientUnits="userSpaceOnUse">
<stop stop-color="#00E5FF"/>
<stop offset="0.12" stop-color="#29B8FE"/>
<stop offset="0.29" stop-color="#5E81FD"/>
<stop offset="0.46" stop-color="#8952FD"/>
<stop offset="0.62" stop-color="#AB2EFC"/>
<stop offset="0.76" stop-color="#C415FC"/>
<stop offset="0.9" stop-color="#D205FC"/>
<stop offset="1" stop-color="#D800FC"/>
</linearGradient>
<clipPath id="clip0_1217_1491">
<rect width="44.0541" height="23.5559" fill="white" transform="translate(21 56.7227)"/>
</clipPath>
</defs>
</svg>
