<svg width="214" height="137" viewBox="0 0 214 137" fill="none" xmlns="http://www.w3.org/2000/svg">
<rect x="2" y="2" width="210" height="133" rx="18" fill="#222222"/>
<rect x="2" y="2" width="210" height="133" rx="18" stroke="url(#paint0_radial_1663_1432)" stroke-width="4"/>
<g clip-path="url(#clip0_1663_1432)">
<path d="M40.6919 59.3192C37.7646 59.3192 36.2124 61.0513 36.2124 64.1282V77.4259H28.1709V51.3613H32.6861L35.508 54.3684C36.8492 52.4229 38.8591 51.3613 41.5753 51.3613H44.0091V59.3192H40.6938H40.6919Z" fill="white"/>
<path d="M45.9458 51.3613H53.9874V66.0039C53.9874 68.7276 55.7505 70.6014 58.3613 70.6014C60.9722 70.6014 62.6995 68.7276 62.6995 66.0039V51.3613H70.7411V77.4278H66.2258L63.4756 74.4925C61.607 76.7214 58.9604 78.0285 55.8579 78.0285C50.0033 78.0285 45.9477 73.7483 45.9477 67.4885V51.3613H45.9458Z" fill="white"/>
<path d="M98.1112 77.4278H90.0698V62.8911C90.0698 60.0975 88.2707 58.1878 85.5904 58.1878C82.9096 58.1878 81.1111 60.0975 81.1111 62.8911V77.4278H73.0693V51.3614H77.5844L80.3707 54.3326C82.2393 52.0697 84.9196 50.7607 88.0957 50.7607C94.0217 50.7607 98.1131 55.1108 98.1131 61.4423V77.4278H98.1112Z" fill="white"/>
<path d="M97.231 51.3613H105.624L109.575 66.1455L114.337 51.3613H120.191L124.953 66.2154L128.903 51.3613H136.628L128.446 77.4278H121.427L116.806 63.1045L112.15 77.4278H105.555L97.231 51.3613Z" fill="white"/>
<path d="M147.598 50.7607C154.439 50.7607 158.567 54.546 158.567 60.8398V77.4278H154.017L151.655 74.8817C149.892 76.933 147.353 78.0285 144.284 78.0285C138.818 78.0285 134.973 74.6342 134.973 69.8233C134.973 64.695 138.712 61.7238 145.202 61.7238H150.74V60.8757C150.74 58.6468 149.506 57.4455 147.177 57.4455C145.096 57.4455 143.757 58.507 143.615 60.275H135.751C136.209 54.5102 140.866 50.7607 147.601 50.7607H147.598ZM150.736 67.9495V66.818H146.045C144.035 66.818 142.871 67.7379 142.871 69.3283C142.871 71.0265 144.246 72.0521 146.539 72.0521C149.255 72.0521 150.736 70.6374 150.736 67.9495Z" fill="white"/>
<path d="M171.758 86.092H163.259L167.808 75.163L157.261 51.3613H166.644L172.11 65.543L177.261 51.3613H185.76L171.758 86.092Z" fill="white"/>
</g>
<defs>
<radialGradient id="paint0_radial_1663_1432" cx="0" cy="0" r="1" gradientUnits="userSpaceOnUse" gradientTransform="translate(121.906 -6.86923) rotate(65.8688) scale(186.668 393.974)">
<stop stop-color="#C6D5FF"/>
<stop offset="0.176167" stop-color="#476BD0"/>
<stop offset="1" stop-opacity="0"/>
</radialGradient>
<clipPath id="clip0_1663_1432">
<rect width="158" height="35.479" fill="white" transform="translate(28 50.7607)"/>
</clipPath>
</defs>
</svg>
