<svg width="174" height="222" viewBox="0 0 174 222" fill="none" xmlns="http://www.w3.org/2000/svg">
<g clip-path="url(#clip0_613_2416)">
<g clip-path="url(#clip1_613_2416)">
<path d="M14.458 154.412V138.432C56.0614 171.756 115.206 171.776 156.842 138.432V154.374C155.808 155.438 155.312 156.717 155.068 157.914C154.578 160.318 154.202 162.663 153.765 165.029C153.296 167.578 152.836 170.118 152.317 172.676C152.172 173.39 151.883 174.177 151.586 174.934C150.115 178.751 146.858 181.181 145.008 179.741C144.364 179.246 143.95 178.401 143.481 177.655C143.032 176.939 142.718 176.068 142.217 175.406C141.185 174.049 139.452 174.756 137.922 177.119C137.308 178.072 136.806 179.083 136.262 180.065C135.729 181.017 135.254 181.99 134.671 182.908C133.316 185.047 131.446 185.894 130.167 184.854C129.482 184.298 128.972 183.473 128.544 182.628C127.926 181.411 127.469 180.053 126.91 178.777C126.694 178.29 126.42 177.839 126.108 177.434C124.457 175.301 120.94 176.108 118.726 179.188C117.913 180.321 117.394 181.641 116.861 182.891C116.383 184.009 116.089 185.154 115.684 186.282C115.536 186.693 115.343 187.106 115.11 187.494C114.056 189.271 112.11 189.761 111.166 188.403C110.635 187.642 110.344 186.681 110.038 185.757C109.61 184.449 109.351 183.051 108.87 181.766C108.15 179.84 107.265 179.529 104.992 180.044C101.546 180.816 99.3634 182.987 98.7865 186.489C98.3146 189.367 98.5709 192.155 99.0546 194.891C99.8528 199.421 100.823 203.893 101.525 208.43C101.857 210.551 101.916 212.785 101.784 214.994C101.575 218.478 99.5324 220.727 96.2693 221.202C92.2984 221.767 89.9269 220.188 89.1286 216.727C88.5401 214.178 88.6624 211.585 89.0645 209.015C89.7841 204.412 90.661 199.818 91.4156 195.2C91.8905 192.31 92.3333 189.393 91.8322 186.515C91.6866 185.67 91.3894 184.822 90.9669 184.076C90.0929 182.538 87.9632 181.784 86.1074 182.171C84.9828 182.41 84.3215 183.162 84.0622 184.106C83.6222 185.69 83.3309 187.31 83.0308 188.927C82.722 190.597 82.5181 192.284 82.1859 193.947C82.0636 194.556 81.7751 195.162 81.4285 195.686C80.2398 197.493 77.6614 197.321 76.7554 195.276C76.1086 193.816 75.8289 192.199 75.5812 190.64C75.2054 188.266 75.0248 185.883 74.7043 183.503C74.6227 182.899 74.3868 182.282 74.1216 181.702C73.2534 179.82 71.3102 179.06 69.6641 180.038C68.8542 180.525 68.1317 181.259 67.6976 182.072C66.8265 183.712 66.2059 185.495 65.4368 187.182C64.9473 188.251 64.4812 189.35 63.8198 190.288C62.0893 192.744 59.0564 192.394 56.8743 189.353C55.7788 187.838 55.001 186.107 54.2143 184.432C53.4481 182.8 52.8683 181.125 52.1808 179.465C51.8982 178.774 51.5602 178.086 51.2252 177.402C49.2353 173.311 46.6453 171.776 42.5461 171.869C40.5913 171.904 39.7959 173.349 39.4609 175.211C39.0268 177.626 39.3123 180.353 39.6852 183.106C40.1455 186.497 40.6787 189.906 41.0924 193.274C41.3429 195.311 41.4187 197.297 40.903 198.99C40.2795 201.032 38.8228 201.671 36.495 200.814C35.8774 200.584 35.2452 200.316 34.6304 199.949C31.784 198.236 30.3128 195.809 29.9602 192.68C29.666 190.072 29.9806 187.852 30.3506 185.661C30.9362 182.177 31.6733 178.789 32.1307 175.205C32.3463 173.53 32.2677 171.584 31.9384 169.635C31.2654 165.696 28.2559 163.292 25.6601 162.004C24.7248 161.547 24.1596 161.958 23.9499 162.733C23.5857 164.093 23.3555 165.576 23.0729 167.007C22.8836 167.951 22.7146 168.915 22.5077 169.842C22.4407 170.133 22.3067 170.366 22.1611 170.576C21.7707 171.147 21.1851 171.301 20.2848 170.707C19.4021 170.121 18.7407 169.154 18.4377 168.108C17.957 166.462 17.5957 164.836 17.2549 163.231C16.8761 161.439 16.6227 159.694 16.2294 157.891C15.973 156.696 15.4923 155.464 14.458 154.412Z" fill="#007DFE"/>
<path d="M163.359 128.741C163.359 128.741 148.792 112.458 118.368 105.174L85.318 106.296L84.3391 178.438C85.5394 178.382 91.069 178.085 98.874 176.934L101.228 155.736L146.22 160.019C145.882 160.881 145.48 161.697 145.037 162.481C154.342 157.339 162.753 150.553 168.504 141.595L163.359 128.741ZM55.3798 107.315L44.2389 104.746L39.525 111.173L27.5276 116.315L12.1012 124.027L4.81765 130.882L0.10376 136.452C0.10376 136.452 15.1369 160.943 47.8865 172.692L49.6724 168.296C49.6724 168.296 63.6684 145.86 64.9853 131.369C64.9853 131.369 64.6561 160.229 55.4701 175.078C55.6915 175.14 55.9159 175.201 56.1402 175.262C60.4346 170.79 69.0174 160.401 71.1908 146.909L66.5614 177.462C69.1806 177.878 71.8784 178.213 74.6636 178.446H75.8494L77.1662 106.575L55.3798 107.315Z" fill="#007DFE"/>
<path d="M56.1401 175.262C59.4556 176.141 62.9313 176.884 66.5585 177.461L71.1879 146.908C69.0145 160.4 60.4345 170.79 56.1401 175.262Z" fill="#007DFE"/>
<mask id="mask0_613_2416" style="mask-type:luminance" maskUnits="userSpaceOnUse" x="-236" y="-44" width="646" height="305">
<path d="M409.024 -43.4365H-235.375V260.863H409.024V-43.4365Z" fill="black" fill-opacity="0.3"/>
</mask>
<g mask="url(#mask0_613_2416)">
<mask id="mask1_613_2416" style="mask-type:luminance" maskUnits="userSpaceOnUse" x="56" y="146" width="16" height="32">
<path d="M56.1401 146.908H71.1879V177.461H56.1401V146.908Z" fill="white"/>
</mask>
<g mask="url(#mask1_613_2416)">
<path d="M56.1401 175.262C59.4556 176.141 62.9313 176.884 66.5585 177.461L71.1879 146.908C69.0145 160.4 60.4345 170.79 56.1401 175.262Z" fill="#004CAA"/>
</g>
</g>
<path d="M64.9855 131.368C63.6686 145.859 49.6726 168.296 49.6726 168.296L47.8867 172.692C50.3165 173.563 52.8424 174.364 55.4674 175.078C64.6563 160.228 64.9855 131.368 64.9855 131.368Z" fill="#007DFE"/>
<mask id="mask2_613_2416" style="mask-type:luminance" maskUnits="userSpaceOnUse" x="-236" y="-44" width="646" height="305">
<path d="M409.024 -43.4365H-235.375V260.863H409.024V-43.4365Z" fill="black" fill-opacity="0.3"/>
</mask>
<g mask="url(#mask2_613_2416)">
<mask id="mask3_613_2416" style="mask-type:luminance" maskUnits="userSpaceOnUse" x="47" y="131" width="18" height="45">
<path d="M47.8867 131.368H64.9855V175.078H47.8867V131.368Z" fill="white"/>
</mask>
<g mask="url(#mask3_613_2416)">
<path d="M64.9855 131.368C63.6686 145.859 49.6726 168.296 49.6726 168.296L47.8867 172.692C50.3165 173.563 52.8424 174.364 55.4674 175.078C64.6563 160.228 64.9855 131.368 64.9855 131.368Z" fill="#004CAA"/>
</g>
</g>
<path d="M101.228 155.735L98.874 176.933C111.282 175.103 129.424 171.106 145.037 162.479C145.483 161.696 145.879 160.877 146.22 160.018L101.228 155.735Z" fill="#0C93FF"/>
<path d="M74.2327 110.315C74.2327 110.315 68.6623 107.742 66.521 108.17C64.3767 108.599 58.8063 109.455 58.8063 109.455L50.2379 109.027L44.2392 104.744C44.2392 104.744 41.6667 84.6038 42.9544 80.7465C42.9544 80.7465 38.2405 53.7508 43.3827 34.4699C43.3827 34.4699 45.0958 3.18869 81.088 0.190796C81.088 0.190796 102.941 0.190796 113.226 20.7565C113.226 20.7565 124.798 43.4694 121.797 61.0373L120.084 81.603L121.369 90.6025C121.369 90.6025 121.369 94.8881 120.94 96.1729C120.512 97.4577 116.655 101.743 116.655 101.743L118.368 105.172L108.515 108.599L87.9461 110.315H74.2327Z" fill="#006DF5"/>
<mask id="mask4_613_2416" style="mask-type:luminance" maskUnits="userSpaceOnUse" x="-236" y="-44" width="646" height="305">
<path d="M409.024 -43.4365H-235.375V260.863H409.024V-43.4365Z" fill="black" fill-opacity="0.5"/>
</mask>
<g mask="url(#mask4_613_2416)">
<mask id="mask5_613_2416" style="mask-type:luminance" maskUnits="userSpaceOnUse" x="94" y="82" width="22" height="21">
<path d="M94.7842 82.2332H115.027V102.644H94.7842V82.2332Z" fill="white"/>
</mask>
<g mask="url(#mask5_613_2416)">
<path d="M94.7842 102.56C94.7842 102.56 107.105 98.8629 114.992 82.2332C115.268 88.194 114.482 103.938 94.7842 102.56Z" fill="#004CAA"/>
</g>
</g>
<mask id="mask6_613_2416" style="mask-type:luminance" maskUnits="userSpaceOnUse" x="-236" y="-44" width="646" height="305">
<path d="M409.024 -43.4365H-235.375V260.863H409.024V-43.4365Z" fill="black" fill-opacity="0.5"/>
</mask>
<g mask="url(#mask6_613_2416)">
<mask id="mask7_613_2416" style="mask-type:luminance" maskUnits="userSpaceOnUse" x="53" y="89" width="25" height="18">
<path d="M53.9961 89.589H77.8481V106.571H53.9961V89.589Z" fill="white"/>
</mask>
<g mask="url(#mask7_613_2416)">
<path d="M77.8481 105.482C77.8481 105.482 65.0379 104.313 53.9961 89.589C54.9109 95.4857 58.8207 110.758 77.8481 105.482Z" fill="#004CAA"/>
</g>
</g>
<path d="M70.8072 101.316C70.8072 101.316 51.5233 95.7458 50.6668 81.1759C50.6668 81.1759 40.3825 31.4703 55.3807 18.1881C55.3807 18.1881 60.9511 6.19069 75.5211 4.4747C75.5211 4.4747 92.6577 0.189078 105.086 14.3307C105.086 14.3307 121.369 41.7546 117.94 57.1811C117.94 57.1811 112.798 85.8898 105.515 93.1733L96.515 97.4589L92.6577 100.888C92.6577 100.888 74.6616 105.174 70.8072 101.316Z" fill="#02306A"/>
<path d="M105.394 17.9985C103.949 16.2767 94.2128 7.06453 81.4375 6.9713V6.96838C81.4171 6.96838 81.3996 6.9713 81.3792 6.9713C81.3588 6.9713 81.3414 6.96838 81.321 6.96838V6.9713C68.5457 7.06453 58.812 16.2767 57.364 17.9985C47.7411 29.4599 47.4118 45.437 47.8518 49.5099C48.8627 58.8474 51.4964 71.3168 57.2213 80.7154C63.3482 90.7754 72.7934 97.4588 80.5722 97.4588C80.8403 97.4588 81.1083 97.4471 81.3792 97.4296C81.6502 97.4471 81.9182 97.4588 82.1862 97.4588C89.965 97.4588 99.4103 90.7754 105.537 80.7154C111.259 71.3168 113.896 58.8474 114.907 49.5099C115.35 45.437 115.017 29.4599 105.394 17.9985Z" fill="#0A0A0A"/>
<path d="M46.844 47.5315C46.844 47.5315 98.4491 50.7275 115.024 47.2256L114.738 50.879C114.738 50.879 71.6371 53.772 47.7093 51.182C47.7093 51.182 46.844 49.5097 46.844 47.5315Z" fill="#2C2C2C"/>
<path d="M77.9792 52.2478L78.2677 97.155L81.3792 97.4289L84.4645 97.3065L85.3298 52.0963L77.9792 52.2478Z" fill="#292929"/>
<path d="M80.5722 97.4591L80.4294 52.4033L82.4484 52.2489L82.1862 97.4591H80.5722Z" fill="#141414"/>
<path d="M95.2297 40.0817C87.3781 38.6541 67.8816 40.0817 67.8816 40.0817L68.1525 16.3491C75.1942 12.2033 95.2297 16.0636 95.2297 16.0636V40.0817ZM98.4782 14.7788C98.4782 14.7788 81.1492 8.917 64.6331 14.9215L63.6863 44.6587C63.6863 44.6587 87.3781 41.7977 98.6151 44.8014L98.4782 14.7788Z" fill="white"/>
<mask id="mask8_613_2416" style="mask-type:luminance" maskUnits="userSpaceOnUse" x="-236" y="-44" width="646" height="305">
<path d="M409.024 -43.4365H-235.375V260.863H409.024V-43.4365Z" fill="black" fill-opacity="0.3"/>
</mask>
<g mask="url(#mask8_613_2416)">
<mask id="mask9_613_2416" style="mask-type:luminance" maskUnits="userSpaceOnUse" x="9" y="123" width="31" height="44">
<path d="M9.65137 123.169H39.5254V166.019H9.65137V123.169Z" fill="white"/>
</mask>
<g mask="url(#mask9_613_2416)">
<path d="M17.6727 127.454C19.6101 126.539 25.8127 123.168 25.8127 123.168L27.957 129.595C27.957 129.595 32.2426 160.448 39.5261 166.019C39.5261 166.019 28.8135 165.162 22.8148 134.738L22.3865 145.45L18.5292 136.451L13.8153 142.881C13.8153 142.881 2.24618 134.738 17.6727 127.454Z" fill="#004CAA"/>
</g>
</g>
<mask id="mask10_613_2416" style="mask-type:luminance" maskUnits="userSpaceOnUse" x="-236" y="-44" width="646" height="305">
<path d="M409.024 -43.4365H-235.375V260.863H409.024V-43.4365Z" fill="black" fill-opacity="0.3"/>
</mask>
<g mask="url(#mask10_613_2416)">
<mask id="mask11_613_2416" style="mask-type:luminance" maskUnits="userSpaceOnUse" x="133" y="120" width="31" height="44">
<path d="M133.914 120.169H163.791V163.019H133.914V120.169Z" fill="white"/>
</mask>
<g mask="url(#mask11_613_2416)">
<path d="M155.767 124.454C153.829 123.539 147.627 120.172 147.627 120.172L145.482 126.596C145.482 126.596 141.2 157.449 133.913 163.019C133.913 163.019 144.626 162.162 150.625 131.741L151.056 142.453L154.91 133.454L159.624 139.881C159.624 139.881 171.193 131.741 155.767 124.454Z" fill="#004CAA"/>
</g>
</g>
<path d="M118.368 169.234C118.368 170.534 117.314 171.591 116.011 171.591C114.712 171.591 113.657 170.534 113.657 169.234C113.657 167.932 114.712 166.877 116.011 166.877C117.314 166.877 118.368 167.932 118.368 169.234Z" fill="white"/>
<mask id="mask12_613_2416" style="mask-type:luminance" maskUnits="userSpaceOnUse" x="-236" y="-44" width="646" height="305">
<path d="M409.024 -43.4365H-235.375V260.863H409.024V-43.4365Z" fill="black" fill-opacity="0.3"/>
</mask>
<g mask="url(#mask12_613_2416)">
<mask id="mask13_613_2416" style="mask-type:luminance" maskUnits="userSpaceOnUse" x="99" y="170" width="14" height="5">
<path d="M99.0867 170.733H112.797V174.588H99.0867V170.733Z" fill="white"/>
</mask>
<g mask="url(#mask13_613_2416)">
<path d="M99.5149 170.733L112.797 174.588L99.0867 174.16L99.5149 170.733Z" fill="#004CAA"/>
</g>
</g>
<path d="M85.3736 102.172L77.2335 103.029L77.1665 106.574L85.3182 106.297L85.3736 102.172Z" fill="#0A0A0A"/>
<path d="M77.1667 106.574L75.8499 178.445H84.089C84.089 178.445 84.1793 178.442 84.3395 178.434L85.3184 106.295L77.1667 106.574Z" fill="#0A0A0A"/>
<mask id="mask14_613_2416" style="mask-type:luminance" maskUnits="userSpaceOnUse" x="43" y="97" width="18" height="14">
<path d="M43.811 97.8872H60.9506V110.724H43.811V97.8872Z" fill="white"/>
</mask>
<g mask="url(#mask14_613_2416)">
<path d="M43.811 97.8872L60.9506 109.885C60.9506 109.885 47.2372 115.455 43.811 97.8872Z" fill="#005CCF"/>
</g>
</g>
</g>
<defs>
<clipPath id="clip0_613_2416">
<rect width="173.649" height="221.583" fill="white"/>
</clipPath>
<clipPath id="clip1_613_2416">
<rect width="536.999" height="536.999" fill="white" transform="translate(-181.675 -159.786)"/>
</clipPath>
</defs>
</svg>
