<svg width="176" height="193" viewBox="0 0 176 193" fill="none" xmlns="http://www.w3.org/2000/svg">
<g clip-path="url(#clip0_611_2184)">
<path d="M196.763 188.291L105.388 17.4752L14.0131 188.291L196.763 188.291Z" stroke="url(#paint0_radial_611_2184)" stroke-width="16.5263"/>
<g clip-path="url(#clip1_611_2184)">
<g clip-path="url(#clip2_611_2184)">
<path d="M63.4761 185.001V174.925C89.7075 195.936 126.999 195.949 153.251 174.925V184.977C152.599 185.647 152.286 186.454 152.132 187.209C151.823 188.724 151.587 190.203 151.311 191.695C151.015 193.302 150.725 194.904 150.398 196.517C150.306 196.967 150.124 197.463 149.937 197.94C149.009 200.347 146.956 201.879 145.789 200.971C145.383 200.659 145.122 200.126 144.827 199.656C144.544 199.204 144.345 198.655 144.029 198.238C143.379 197.382 142.286 197.828 141.322 199.318C140.934 199.919 140.618 200.556 140.275 201.175C139.939 201.776 139.639 202.389 139.272 202.968C138.418 204.316 137.238 204.851 136.432 204.195C136 203.844 135.679 203.324 135.409 202.792C135.019 202.024 134.731 201.168 134.378 200.363C134.242 200.056 134.07 199.772 133.873 199.516C132.831 198.172 130.614 198.681 129.218 200.622C128.706 201.337 128.379 202.169 128.043 202.957C127.741 203.662 127.556 204.384 127.3 205.095C127.207 205.354 127.085 205.615 126.939 205.859C126.274 206.98 125.046 207.288 124.451 206.432C124.117 205.953 123.933 205.347 123.74 204.764C123.47 203.94 123.307 203.058 123.004 202.248C122.55 201.034 121.992 200.837 120.559 201.162C118.386 201.649 117.01 203.018 116.646 205.226C116.349 207.04 116.51 208.798 116.815 210.523C117.318 213.38 117.93 216.199 118.373 219.06C118.582 220.397 118.619 221.806 118.536 223.198C118.404 225.395 117.116 226.813 115.059 227.113C112.555 227.469 111.06 226.473 110.557 224.291C110.186 222.684 110.263 221.049 110.516 219.429C110.97 216.526 111.523 213.63 111.999 210.718C112.298 208.896 112.577 207.057 112.261 205.242C112.17 204.709 111.982 204.175 111.716 203.705C111.165 202.735 109.822 202.259 108.652 202.503C107.943 202.654 107.526 203.128 107.362 203.723C107.085 204.722 106.901 205.744 106.712 206.763C106.517 207.816 106.389 208.879 106.179 209.928C106.102 210.312 105.92 210.694 105.702 211.025C104.952 212.164 103.327 212.055 102.755 210.766C102.347 209.845 102.171 208.826 102.015 207.843C101.778 206.346 101.664 204.843 101.462 203.343C101.411 202.962 101.262 202.573 101.095 202.207C100.547 201.021 99.322 200.541 98.2842 201.159C97.7735 201.465 97.3179 201.928 97.0442 202.441C96.495 203.475 96.1037 204.599 95.6188 205.663C95.3102 206.337 95.0163 207.029 94.5993 207.621C93.5081 209.169 91.5959 208.949 90.22 207.031C89.5293 206.076 89.0389 204.985 88.5429 203.929C88.0598 202.9 87.6942 201.844 87.2607 200.797C87.0825 200.361 86.8694 199.928 86.6582 199.496C85.4036 196.917 83.7705 195.949 81.186 196.008C79.9534 196.03 79.4519 196.941 79.2407 198.115C78.967 199.638 79.147 201.357 79.3821 203.093C79.6723 205.231 80.0085 207.38 80.2693 209.504C80.4273 210.788 80.4751 212.041 80.1499 213.108C79.7568 214.396 78.8384 214.798 77.3707 214.258C76.9812 214.113 76.5826 213.944 76.195 213.712C74.4003 212.632 73.4727 211.102 73.2504 209.129C73.0649 207.485 73.2633 206.085 73.4966 204.704C73.8658 202.507 74.3305 200.371 74.6189 198.111C74.7549 197.055 74.7053 195.828 74.4977 194.599C74.0734 192.115 72.1758 190.6 70.5391 189.788C69.9494 189.5 69.5931 189.759 69.4608 190.247C69.2312 191.105 69.0861 192.04 68.9079 192.942C68.7885 193.537 68.682 194.145 68.5515 194.729C68.5093 194.913 68.4248 195.06 68.3329 195.192C68.0868 195.552 67.7176 195.65 67.1499 195.275C66.5934 194.906 66.1764 194.296 65.9853 193.636C65.6822 192.598 65.4545 191.573 65.2395 190.561C65.0007 189.432 64.8409 188.331 64.5929 187.194C64.4313 186.441 64.1282 185.664 63.4761 185.001Z" fill="#007DFE"/>
<path d="M157.36 168.813C157.36 168.813 148.176 158.546 128.993 153.954L108.154 154.661L107.537 200.147C108.294 200.112 111.78 199.925 116.702 199.199L118.186 185.834L146.554 188.534C146.341 189.078 146.087 189.592 145.808 190.086C151.675 186.844 156.978 182.566 160.604 176.917L157.36 168.813ZM89.278 155.304L82.2535 153.684L79.2814 157.736L71.7169 160.978L61.9903 165.84L57.3979 170.163L54.4258 173.675C54.4258 173.675 63.9044 189.116 84.5534 196.525L85.6794 193.753C85.6794 193.753 94.504 179.606 95.3343 170.47C95.3343 170.47 95.1268 188.666 89.3349 198.029C89.4745 198.068 89.616 198.106 89.7574 198.145C92.465 195.325 97.8767 188.775 99.247 180.268L96.3281 199.532C97.9795 199.794 99.6805 200.006 101.437 200.153H102.184L103.015 154.837L89.278 155.304Z" fill="#007DFE"/>
<path d="M89.7566 198.152C91.847 198.706 94.0385 199.175 96.3255 199.539L99.2444 180.275C97.874 188.782 92.4642 195.332 89.7566 198.152Z" fill="#007DFE"/>
<mask id="mask0_611_2184" style="mask-type:luminance" maskUnits="userSpaceOnUse" x="-95" y="60" width="408" height="193">
<path d="M312.255 60.2625H-94.0461V252.127H312.255V60.2625Z" fill="black" fill-opacity="0.3"/>
</mask>
<g mask="url(#mask0_611_2184)">
<mask id="mask1_611_2184" style="mask-type:luminance" maskUnits="userSpaceOnUse" x="89" y="180" width="11" height="20">
<path d="M89.7571 180.266H99.2449V199.53H89.7571V180.266Z" fill="white"/>
</mask>
<g mask="url(#mask1_611_2184)">
<path d="M89.7571 198.143C91.8475 198.698 94.039 199.166 96.326 199.53L99.2449 180.266C97.8745 188.773 92.4647 195.323 89.7571 198.143Z" fill="#004CAA"/>
</g>
</g>
<path d="M95.3332 170.47C94.5029 179.607 85.6783 193.753 85.6783 193.753L84.5522 196.525C86.0843 197.075 87.6769 197.58 89.332 198.03C95.1256 188.667 95.3332 170.47 95.3332 170.47Z" fill="#007DFE"/>
<mask id="mask2_611_2184" style="mask-type:luminance" maskUnits="userSpaceOnUse" x="-95" y="60" width="408" height="193">
<path d="M312.255 60.2625H-94.0461V252.127H312.255V60.2625Z" fill="black" fill-opacity="0.3"/>
</mask>
<g mask="url(#mask2_611_2184)">
<mask id="mask3_611_2184" style="mask-type:luminance" maskUnits="userSpaceOnUse" x="84" y="170" width="12" height="29">
<path d="M84.5554 170.483H95.3364V198.042H84.5554V170.483Z" fill="white"/>
</mask>
<g mask="url(#mask3_611_2184)">
<path d="M95.3364 170.483C94.5061 179.62 85.6815 193.766 85.6815 193.766L84.5554 196.538C86.0874 197.087 87.68 197.592 89.3351 198.042C95.1288 188.68 95.3364 170.483 95.3364 170.483Z" fill="#004CAA"/>
</g>
</g>
<path d="M101.164 157.197C101.164 157.197 97.6521 155.575 96.3019 155.845C94.9499 156.115 91.4377 156.655 91.4377 156.655L86.0353 156.385L82.253 153.685C82.253 153.685 80.631 140.986 81.4429 138.554C81.4429 138.554 78.4708 121.533 81.713 109.376C81.713 109.376 82.7931 89.6531 105.487 87.7629C105.487 87.7629 119.265 87.7629 125.75 100.73C125.75 100.73 133.046 115.051 131.154 126.127L130.074 139.094L130.884 144.769C130.884 144.769 130.884 147.471 130.614 148.281C130.344 149.091 127.912 151.793 127.912 151.793L128.992 153.955L122.779 156.115L109.811 157.197H101.164Z" fill="#006DF5"/>
<mask id="mask4_611_2184" style="mask-type:luminance" maskUnits="userSpaceOnUse" x="-95" y="60" width="408" height="193">
<path d="M312.255 60.2625H-94.0461V252.127H312.255V60.2625Z" fill="black" fill-opacity="0.5"/>
</mask>
<g mask="url(#mask4_611_2184)">
<mask id="mask5_611_2184" style="mask-type:luminance" maskUnits="userSpaceOnUse" x="114" y="139" width="13" height="14">
<path d="M114.123 139.493H126.886V152.363H114.123V139.493Z" fill="white"/>
</mask>
<g mask="url(#mask5_611_2184)">
<path d="M114.123 152.309C114.123 152.309 121.891 149.978 126.864 139.493C127.039 143.252 126.543 153.178 114.123 152.309Z" fill="#004CAA"/>
</g>
</g>
<mask id="mask6_611_2184" style="mask-type:luminance" maskUnits="userSpaceOnUse" x="-95" y="60" width="408" height="193">
<path d="M312.255 60.2625H-94.0461V252.127H312.255V60.2625Z" fill="black" fill-opacity="0.5"/>
</mask>
<g mask="url(#mask6_611_2184)">
<mask id="mask7_611_2184" style="mask-type:luminance" maskUnits="userSpaceOnUse" x="88" y="144" width="16" height="11">
<path d="M88.4053 144.135H103.444V154.843H88.4053V144.135Z" fill="white"/>
</mask>
<g mask="url(#mask7_611_2184)">
<path d="M103.444 154.155C103.444 154.155 95.3673 153.419 88.4053 144.135C88.9821 147.853 91.4472 157.482 103.444 154.155Z" fill="#004CAA"/>
</g>
</g>
<path d="M99.0051 151.522C99.0051 151.522 86.8464 148.01 86.3063 138.823C86.3063 138.823 79.822 107.483 89.2785 99.1089C89.2785 99.1089 92.7907 91.5444 101.977 90.4624C101.977 90.4624 112.782 87.7603 120.618 96.6768C120.618 96.6768 130.885 113.968 128.723 123.694C128.723 123.694 125.481 141.796 120.888 146.388L115.214 149.09L112.782 151.252C112.782 151.252 101.435 153.954 99.0051 151.522Z" fill="#02306A"/>
<path d="M120.812 98.9935C119.901 97.9078 113.762 92.0994 105.707 92.0407V92.0388C105.694 92.0388 105.683 92.0407 105.67 92.0407C105.657 92.0407 105.646 92.0388 105.633 92.0388V92.0407C97.5783 92.0994 91.4411 97.9078 90.5282 98.9935C84.4608 106.22 84.2532 116.294 84.5306 118.862C85.168 124.749 86.8286 132.611 90.4381 138.537C94.3012 144.88 100.257 149.094 105.161 149.094C105.33 149.094 105.499 149.087 105.67 149.076C105.841 149.087 106.01 149.094 106.179 149.094C111.083 149.094 117.039 144.88 120.902 138.537C124.51 132.611 126.172 124.749 126.809 118.862C127.089 116.294 126.879 106.22 120.812 98.9935Z" fill="#0A0A0A"/>
<path d="M83.8962 117.613C83.8962 117.613 116.434 119.628 126.884 117.42L126.704 119.723C126.704 119.723 99.5286 121.547 84.4418 119.914C84.4418 119.914 83.8962 118.86 83.8962 117.613Z" fill="#2C2C2C"/>
<path d="M103.528 120.587L103.71 148.901L105.672 149.074L107.617 148.997L108.162 120.491L103.528 120.587Z" fill="#292929"/>
<path d="M105.162 149.089L105.072 120.681L106.345 120.584L106.179 149.089H105.162Z" fill="#141414"/>
<path d="M96.984 114.245L105.706 99.0762L114.428 114.245H96.984Z" stroke="#C6D5FF" stroke-width="1.52419"/>
<mask id="mask8_611_2184" style="mask-type:luminance" maskUnits="userSpaceOnUse" x="-95" y="60" width="408" height="193">
<path d="M312.255 60.2625H-94.0461V252.127H312.255V60.2625Z" fill="black" fill-opacity="0.3"/>
</mask>
<g mask="url(#mask8_611_2184)">
<mask id="mask9_611_2184" style="mask-type:luminance" maskUnits="userSpaceOnUse" x="60" y="165" width="20" height="28">
<path d="M60.4473 165.304H79.2832V192.322H60.4473V165.304Z" fill="white"/>
</mask>
<g mask="url(#mask9_611_2184)">
<path d="M65.5033 168.006C66.7249 167.429 70.6357 165.304 70.6357 165.304L71.9877 169.356C71.9877 169.356 74.6898 188.809 79.2821 192.322C79.2821 192.322 72.5277 191.782 68.7455 172.598L68.4755 179.353L66.0434 173.679L63.0712 177.733C63.0712 177.733 55.7767 172.598 65.5033 168.006Z" fill="#004CAA"/>
</g>
</g>
<mask id="mask10_611_2184" style="mask-type:luminance" maskUnits="userSpaceOnUse" x="-95" y="60" width="408" height="193">
<path d="M312.255 60.2625H-94.0461V252.127H312.255V60.2625Z" fill="black" fill-opacity="0.3"/>
</mask>
<g mask="url(#mask10_611_2184)">
<mask id="mask11_611_2184" style="mask-type:luminance" maskUnits="userSpaceOnUse" x="138" y="163" width="20" height="28">
<path d="M138.795 163.421H157.633V190.439H138.795V163.421Z" fill="white"/>
</mask>
<g mask="url(#mask11_611_2184)">
<path d="M152.574 166.123C151.352 165.546 147.442 163.422 147.442 163.422L146.09 167.473C146.09 167.473 143.389 186.926 138.795 190.438C138.795 190.438 145.55 189.898 149.332 170.717L149.604 177.471L152.034 171.797L155.006 175.849C155.006 175.849 162.301 170.717 152.574 166.123Z" fill="#004CAA"/>
</g>
</g>
<path d="M108.189 152.065L103.057 152.605L103.014 154.84L108.154 154.666L108.189 152.065Z" fill="#0A0A0A"/>
<path d="M103.016 154.839L102.185 200.154H107.38C107.38 200.154 107.437 200.152 107.538 200.147L108.155 154.663L103.016 154.839Z" fill="#0A0A0A"/>
<mask id="mask12_611_2184" style="mask-type:luminance" maskUnits="userSpaceOnUse" x="81" y="149" width="12" height="9">
<path d="M81.9846 149.373H92.7913V157.466H81.9846V149.373Z" fill="white"/>
</mask>
<g mask="url(#mask12_611_2184)">
<path d="M81.9846 149.373L92.7913 156.937C92.7913 156.937 84.1449 160.45 81.9846 149.373Z" fill="#005CCF"/>
</g>
</g>
</g>
<rect x="-6.09497" y="163.496" width="194.018" height="31.569" fill="url(#paint1_linear_611_2184)"/>
</g>
<defs>
<radialGradient id="paint0_radial_611_2184" cx="0" cy="0" r="1" gradientUnits="userSpaceOnUse" gradientTransform="translate(33.1211 131.149) rotate(-0.0628361) scale(116.119 146.979)">
<stop stop-color="#C6D5FF"/>
<stop offset="0.508505" stop-color="#476BD0"/>
<stop offset="0.99"/>
</radialGradient>
<linearGradient id="paint1_linear_611_2184" x1="90.9141" y1="163.496" x2="90.9141" y2="195.065" gradientUnits="userSpaceOnUse">
<stop stop-opacity="0"/>
<stop offset="1"/>
</linearGradient>
<clipPath id="clip0_611_2184">
<rect width="210.287" height="192.81" fill="white" transform="translate(0.187256)"/>
</clipPath>
<clipPath id="clip1_611_2184">
<rect width="108.817" height="92.4585" fill="white" transform="translate(54.6514 87.949)"/>
</clipPath>
<clipPath id="clip2_611_2184">
<rect width="338.584" height="338.584" fill="white" transform="translate(-60.1885 -13.1007)"/>
</clipPath>
</defs>
</svg>
