<svg width="272" height="74" viewBox="0 0 272 74" fill="none" xmlns="http://www.w3.org/2000/svg">
<path d="M16.4533 31.3253L26.5921 50.3101H6.31457L16.4533 31.3253Z" fill="#457CF3"/>
<path d="M2.6906 50.0001L16.1381 21.7603L29.5856 50.0001H23.5343L16.1381 34.5355L8.74199 50.0001H2.6906ZM36.3094 50.0001H30.9304V23.1051H36.3094V50.0001Z" fill="white"/>
<g clip-path="url(#clip0_592_103)">
<circle cx="66.7631" cy="36.7042" r="9.80878" fill="#457CF3"/>
<path d="M66.7782 50.0004C63.0521 50.0004 59.8723 48.6976 57.2388 46.0922C54.6334 43.4587 53.3306 40.2789 53.3306 36.5528C53.3306 32.8268 54.6334 29.661 57.2388 27.0555C59.8723 24.4221 63.0521 23.1053 66.7782 23.1053C70.5042 23.1053 73.67 24.4221 76.2755 27.0555C78.9089 29.661 80.2257 32.8268 80.2257 36.5528C80.2257 40.2789 78.9089 43.4587 76.2755 46.0922C73.67 48.6976 70.5042 50.0004 66.7782 50.0004ZM66.7782 44.6214C69.0194 44.6214 70.9245 43.8369 72.4933 42.268C74.0622 40.6992 74.8467 38.7941 74.8467 36.5528C74.8467 34.3116 74.0622 32.4065 72.4933 30.8377C70.9245 29.2688 69.0194 28.4843 66.7782 28.4843C64.5369 28.4843 62.6318 29.2688 61.063 30.8377C59.4941 32.4065 58.7096 34.3116 58.7096 36.5528C58.7096 38.7941 59.4941 40.6992 61.063 42.268C62.6318 43.8369 64.5369 44.6214 66.7782 44.6214ZM102.162 50.0004H83.3354V23.1053H102.162C105.888 23.1053 109.054 24.4221 111.659 27.0555C114.293 29.661 115.609 32.8268 115.609 36.5528C115.609 40.2789 114.293 43.4587 111.659 46.0922C109.054 48.6976 105.888 50.0004 102.162 50.0004ZM88.7144 44.6214H102.162C104.403 44.6214 106.308 43.8369 107.877 42.268C109.446 40.6992 110.23 38.7941 110.23 36.5528C110.23 34.3116 109.446 32.4065 107.877 30.8377C106.308 29.2688 104.403 28.4843 102.162 28.4843H88.7144V44.6214ZM122.795 37.3933L112.037 23.1053H118.761L125.485 32.0563L132.209 23.1053H138.932L128.174 37.3513V60.7584H122.795V37.3933ZM164.315 50.0004H132.041V44.6214H164.315C165.071 44.6214 165.701 44.3692 166.206 43.8649C166.738 43.3326 167.004 42.6883 167.004 41.9319C167.004 41.1754 166.738 40.5451 166.206 40.0408C165.701 39.5085 165.071 39.2424 164.315 39.2424H153.557C151.315 39.2424 149.41 38.4579 147.841 36.889C146.273 35.3202 145.488 33.4151 145.488 31.1738C145.488 28.9326 146.273 27.0275 147.841 25.4586C149.41 23.8898 151.315 23.1053 153.557 23.1053H169.694V28.4843H153.557C152.8 28.4843 152.156 28.7505 151.624 29.2828C151.119 29.7871 150.867 30.4174 150.867 31.1738C150.867 31.9303 151.119 32.5746 151.624 33.1069C152.156 33.6112 152.8 33.8633 153.557 33.8633H164.315C166.556 33.8633 168.461 34.6478 170.03 36.2167C171.599 37.7855 172.383 39.6906 172.383 41.9319C172.383 44.1731 171.599 46.0782 170.03 47.6471C168.461 49.2159 166.556 50.0004 164.315 50.0004ZM205.834 50.0004H173.56V44.6214H205.834C206.59 44.6214 207.221 44.3692 207.725 43.8649C208.257 43.3326 208.523 42.6883 208.523 41.9319C208.523 41.1754 208.257 40.5451 207.725 40.0408C207.221 39.5085 206.59 39.2424 205.834 39.2424H195.076C192.835 39.2424 190.93 38.4579 189.361 36.889C187.792 35.3202 187.007 33.4151 187.007 31.1738C187.007 28.9326 187.792 27.0275 189.361 25.4586C190.93 23.8898 192.835 23.1053 195.076 23.1053H211.213V28.4843H195.076C194.319 28.4843 193.675 28.7505 193.143 29.2828C192.639 29.7871 192.386 30.4174 192.386 31.1738C192.386 31.9303 192.639 32.5746 193.143 33.1069C193.675 33.6112 194.319 33.8633 195.076 33.8633H205.834C208.075 33.8633 209.98 34.6478 211.549 36.2167C213.118 37.7855 213.902 39.6906 213.902 41.9319C213.902 44.1731 213.118 46.0782 211.549 47.6471C209.98 49.2159 208.075 50.0004 205.834 50.0004ZM259.708 39.2424H228.779V33.8633H259.708V39.2424ZM243.571 23.1053V28.4843H222.055V44.6214H243.571V50.0004H216.676V23.1053H243.571ZM263.784 37.3933L253.026 23.1053H259.75L266.474 32.0563L273.198 23.1053H279.921L269.163 37.3513V60.7584H263.784V37.3933Z" fill="white"/>
</g>
<g clip-path="url(#clip1_592_103)">
<rect x="210.414" y="28.1605" width="21.8324" height="17.4027" fill="#457CF3"/>
<path d="M55.7039 50.0004C51.9778 50.0004 48.7981 48.6976 46.1646 46.0922C43.5591 43.4587 42.2564 40.2789 42.2564 36.5528C42.2564 32.8268 43.5591 29.661 46.1646 27.0555C48.7981 24.4221 51.9778 23.1053 55.7039 23.1053C59.43 23.1053 62.5958 24.4221 65.2012 27.0555C67.8347 29.661 69.1515 32.8268 69.1515 36.5528C69.1515 40.2789 67.8347 43.4587 65.2012 46.0922C62.5958 48.6976 59.43 50.0004 55.7039 50.0004ZM55.7039 44.6214C57.9452 44.6214 59.8502 43.8369 61.4191 42.268C62.988 40.6992 63.7724 38.7941 63.7724 36.5528C63.7724 34.3116 62.988 32.4065 61.4191 30.8377C59.8502 29.2688 57.9452 28.4843 55.7039 28.4843C53.4627 28.4843 51.5576 29.2688 49.9887 30.8377C48.4199 32.4065 47.6354 34.3116 47.6354 36.5528C47.6354 38.7941 48.4199 40.6992 49.9887 42.268C51.5576 43.8369 53.4627 44.6214 55.7039 44.6214ZM91.0877 50.0004H72.2612V23.1053H91.0877C94.8138 23.1053 97.9796 24.4221 100.585 27.0555C103.218 29.661 104.535 32.8268 104.535 36.5528C104.535 40.2789 103.218 43.4587 100.585 46.0922C97.9796 48.6976 94.8138 50.0004 91.0877 50.0004ZM77.6402 44.6214H91.0877C93.329 44.6214 95.234 43.8369 96.8029 42.268C98.3718 40.6992 99.1562 38.7941 99.1562 36.5528C99.1562 34.3116 98.3718 32.4065 96.8029 30.8377C95.234 29.2688 93.329 28.4843 91.0877 28.4843H77.6402V44.6214ZM111.721 37.3933L100.963 23.1053H107.687L114.411 32.0563L121.135 23.1053H127.858L117.1 37.3513V60.7584H111.721V37.3933ZM153.24 50.0004H120.966V44.6214H153.24C153.997 44.6214 154.627 44.3692 155.132 43.8649C155.664 43.3326 155.93 42.6883 155.93 41.9319C155.93 41.1754 155.664 40.5451 155.132 40.0408C154.627 39.5085 153.997 39.2424 153.24 39.2424H142.482C140.241 39.2424 138.336 38.4579 136.767 36.889C135.198 35.3202 134.414 33.4151 134.414 31.1738C134.414 28.9326 135.198 27.0275 136.767 25.4586C138.336 23.8898 140.241 23.1053 142.482 23.1053H158.619V28.4843H142.482C141.726 28.4843 141.082 28.7505 140.549 29.2828C140.045 29.7871 139.793 30.4174 139.793 31.1738C139.793 31.9303 140.045 32.5746 140.549 33.1069C141.082 33.6112 141.726 33.8633 142.482 33.8633H153.24C155.482 33.8633 157.387 34.6478 158.956 36.2167C160.525 37.7855 161.309 39.6906 161.309 41.9319C161.309 44.1731 160.525 46.0782 158.956 47.6471C157.387 49.2159 155.482 50.0004 153.24 50.0004ZM194.76 50.0004H162.486V44.6214H194.76C195.516 44.6214 196.146 44.3692 196.651 43.8649C197.183 43.3326 197.449 42.6883 197.449 41.9319C197.449 41.1754 197.183 40.5451 196.651 40.0408C196.146 39.5085 195.516 39.2424 194.76 39.2424H184.002C181.76 39.2424 179.855 38.4579 178.286 36.889C176.718 35.3202 175.933 33.4151 175.933 31.1738C175.933 28.9326 176.718 27.0275 178.286 25.4586C179.855 23.8898 181.76 23.1053 184.002 23.1053H200.139V28.4843H184.002C183.245 28.4843 182.601 28.7505 182.069 29.2828C181.564 29.7871 181.312 30.4174 181.312 31.1738C181.312 31.9303 181.564 32.5746 182.069 33.1069C182.601 33.6112 183.245 33.8633 184.002 33.8633H194.76C197.001 33.8633 198.906 34.6478 200.475 36.2167C202.044 37.7855 202.828 39.6906 202.828 41.9319C202.828 44.1731 202.044 46.0782 200.475 47.6471C198.906 49.2159 197.001 50.0004 194.76 50.0004ZM248.634 39.2424H217.705V33.8633H248.634V39.2424ZM232.497 23.1053V28.4843H210.981V44.6214H232.497V50.0004H205.602V23.1053H232.497ZM252.71 37.3933L241.952 23.1053H248.676L255.4 32.0563L262.123 23.1053H268.847L258.089 37.3513V60.7584H252.71V37.3933Z" fill="white"/>
</g>
<defs>
<clipPath id="clip0_592_103">
<rect width="121.819" height="73.7241" fill="white" transform="translate(50.626 0.000244141)"/>
</clipPath>
<clipPath id="clip1_592_103">
<rect width="96.1893" height="73.7241" fill="white" transform="translate(175.609 0.000244141)"/>
</clipPath>
</defs>
</svg>
